<svg width="27" height="28" viewBox="0 0 27 28" fill="none" xmlns="http://www.w3.org/2000/svg">
<g filter="url(#filter0_b_90_2293)">
<path fill-rule="evenodd" clip-rule="evenodd" d="M9.66724 25.4391V21.4464C9.66722 20.4309 10.4951 19.6057 11.5209 19.5989H15.2784C16.3091 19.5989 17.1446 20.426 17.1446 21.4464V25.4515C17.1444 26.3137 17.8395 27.0184 18.7102 27.0386H21.2152C23.7124 27.0386 25.7367 25.0346 25.7367 22.5624V11.2043C25.7234 10.2318 25.2621 9.3185 24.4842 8.72441L15.9172 1.89222C14.4163 0.702595 12.2828 0.702595 10.782 1.89222L2.25249 8.73681C1.47164 9.32849 1.00962 10.2433 1 11.2167V22.5624C1 25.0346 3.02434 27.0386 5.5215 27.0386H8.02648C8.91881 27.0386 9.64219 26.3225 9.64219 25.4391" fill="url(#paint0_linear_90_2293)"/>
<path d="M9.66724 25.4391V21.4464C9.66722 20.4309 10.4951 19.6057 11.5209 19.5989H15.2784C16.3091 19.5989 17.1446 20.426 17.1446 21.4464V21.4464V25.4515C17.1444 26.3137 17.8395 27.0184 18.7102 27.0386H21.2152C23.7124 27.0386 25.7367 25.0346 25.7367 22.5624V22.5624V11.2043C25.7234 10.2318 25.2621 9.3185 24.4842 8.72441L15.9172 1.89222C14.4163 0.702595 12.2828 0.702595 10.782 1.89222L2.25249 8.73681C1.47164 9.32849 1.00962 10.2433 1 11.2167V22.5624C1 25.0346 3.02434 27.0386 5.5215 27.0386H8.02648C8.91881 27.0386 9.64219 26.3225 9.64219 25.4391V25.4391" stroke="url(#paint1_linear_90_2293)" stroke-width="1.5" stroke-linecap="round" stroke-linejoin="round"/>
</g>
<defs>
<filter id="filter0_b_90_2293" x="-4.56" y="-4.56" width="35.8568" height="37.1586" filterUnits="userSpaceOnUse" color-interpolation-filters="sRGB">
<feFlood flood-opacity="0" result="BackgroundImageFix"/>
<feGaussianBlur in="BackgroundImage" stdDeviation="2.405"/>
<feComposite in2="SourceAlpha" operator="in" result="effect1_backgroundBlur_90_2293"/>
<feBlend mode="normal" in="SourceGraphic" in2="effect1_backgroundBlur_90_2293" result="shape"/>
</filter>
<linearGradient id="paint0_linear_90_2293" x1="15.1895" y1="15.763" x2="-6.95935" y2="25.9938" gradientUnits="userSpaceOnUse">
<stop stop-color="#FF8F71"/>
<stop offset="1" stop-color="#EF2D1A"/>
</linearGradient>
<linearGradient id="paint1_linear_90_2293" x1="4.93768" y1="4.03354" x2="21.7068" y2="23.7641" gradientUnits="userSpaceOnUse">
<stop stop-color="white" stop-opacity="0.25"/>
<stop offset="1" stop-color="white" stop-opacity="0"/>
</linearGradient>
</defs>
</svg>
