<svg width="30" height="30" viewBox="0 0 30 30" fill="none" xmlns="http://www.w3.org/2000/svg">
<g filter="url(#filter0_b_90_2318)">
<path d="M29 15C29 22.7322 22.7322 29 15 29C7.2678 29 1 22.7322 1 15C1 7.2692 7.2678 1 15 1C22.7322 1 29 7.2692 29 15Z" fill="url(#paint0_linear_90_2318)"/>
<path d="M15 29.1367C22.8077 29.1367 29.1367 22.8077 29.1367 15C29.1367 7.19369 22.8077 0.863265 15 0.863265C7.19228 0.863265 0.863265 7.19369 0.863265 15C0.863265 22.8077 7.19228 29.1367 15 29.1367Z" stroke="url(#paint1_linear_90_2318)" stroke-width="0.27347" stroke-linecap="round" stroke-linejoin="round"/>
</g>
<g filter="url(#filter1_b_90_2318)">
<path d="M20.6003 15.0071C20.6003 15.3609 20.4889 15.7161 20.2662 16.0005C20.2244 16.0563 20.0296 16.2863 19.8764 16.436L19.7929 16.5176C18.6236 17.7574 15.7142 19.6218 14.2386 20.2192C14.2386 20.2328 13.3617 20.588 12.944 20.6003H12.8884C12.248 20.6003 11.6494 20.2478 11.3432 19.6762C11.1761 19.3619 11.023 18.4501 11.0091 18.4378C10.8838 17.62 10.8003 16.3679 10.8003 14.9935C10.8003 13.5523 10.8838 12.2445 11.0369 11.4416C11.0369 11.428 11.1901 10.6931 11.2875 10.4481C11.4406 10.0957 11.719 9.79492 12.0671 9.6044C12.3455 9.46967 12.6378 9.40027 12.944 9.40027C13.2642 9.41524 13.8628 9.61801 14.0994 9.71327C15.6585 10.3121 18.6375 12.2717 19.779 13.4693C19.9739 13.6598 20.1827 13.8925 20.2384 13.9456C20.475 14.245 20.6003 14.6124 20.6003 15.0071Z" fill="url(#paint2_linear_90_2318)"/>
<path d="M11.3432 19.6762L11.3915 19.6506C11.312 19.501 11.2333 19.2021 11.1721 18.9317C11.1418 18.7979 11.1162 18.6735 11.0973 18.5813L11.0973 18.5813L11.0972 18.5811C11.0878 18.5353 11.08 18.4971 11.074 18.47C11.0711 18.4565 11.0685 18.4451 11.0663 18.4366C11.0652 18.4324 11.064 18.4281 11.0627 18.4242C11.0625 18.4237 11.0623 18.4231 11.0621 18.4225C10.938 17.6081 10.855 16.3623 10.855 14.9935C10.855 13.5533 10.9385 12.2496 11.0907 11.4518L11.0916 11.452V11.4455L11.0925 11.4408L11.0973 11.4158C11.1017 11.3942 11.108 11.3636 11.1159 11.3264C11.1317 11.2521 11.1538 11.1517 11.1789 11.0441C11.2295 10.8276 11.2911 10.5874 11.338 10.4691C11.486 10.129 11.7552 9.83785 12.0921 9.65303C12.3626 9.52234 12.646 9.45516 12.9428 9.45496C13.0957 9.46235 13.3193 9.51494 13.5376 9.57913C13.7553 9.64314 13.9624 9.71707 14.079 9.76401L14.079 9.76401L14.0798 9.76433C14.8538 10.0616 15.9845 10.6986 17.0657 11.4124C18.147 12.1262 19.173 12.9128 19.7394 13.507L19.7394 13.507L19.7408 13.5084C19.8374 13.6028 19.9376 13.708 20.0211 13.7965C20.041 13.8176 20.06 13.8379 20.0779 13.8569C20.1316 13.9142 20.1747 13.9601 20.1977 13.9824C20.425 14.2713 20.5456 14.6255 20.5456 15.0071C20.5456 15.3497 20.4377 15.6928 20.2231 15.9668L20.2224 15.9677C20.1824 16.0212 19.9894 16.2491 19.8382 16.3969L19.7547 16.4785L19.7546 16.4785L19.7531 16.4801C19.1729 17.0953 18.1576 17.8685 17.1006 18.5636C16.0438 19.2586 14.9511 19.8718 14.2181 20.1685L14.184 20.1824V20.1863C14.182 20.1872 14.18 20.1881 14.1779 20.189C14.154 20.1997 14.1188 20.2144 14.0748 20.232C13.9869 20.267 13.8652 20.3128 13.7304 20.3585C13.4587 20.4506 13.1428 20.5395 12.9432 20.5456H12.8884C12.268 20.5456 11.688 20.204 11.3914 19.6504L11.3432 19.6762ZM11.3432 19.6762C11.6494 20.2478 12.248 20.6003 12.8884 20.6003H12.944L11.0369 11.4416C10.8838 12.2445 10.8003 13.5523 10.8003 14.9935C10.8003 16.3679 10.8838 17.62 11.0091 18.4378C11.0126 18.4409 11.0248 18.5003 11.0437 18.5925C11.1005 18.8689 11.2179 19.4405 11.3432 19.6762Z" stroke="url(#paint3_linear_90_2318)" stroke-width="0.109388"/>
</g>
<defs>
<filter id="filter0_b_90_2318" x="-0.588826" y="-0.588856" width="31.1777" height="31.1777" filterUnits="userSpaceOnUse" color-interpolation-filters="sRGB">
<feFlood flood-opacity="0" result="BackgroundImageFix"/>
<feGaussianBlur in="BackgroundImage" stdDeviation="0.657694"/>
<feComposite in2="SourceAlpha" operator="in" result="effect1_backgroundBlur_90_2318"/>
<feBlend mode="normal" in="SourceGraphic" in2="effect1_backgroundBlur_90_2318" result="shape"/>
</filter>
<filter id="filter1_b_90_2318" x="6.69825" y="5.29823" width="18.0041" height="19.4041" filterUnits="userSpaceOnUse" color-interpolation-filters="sRGB">
<feFlood flood-opacity="0" result="BackgroundImageFix"/>
<feGaussianBlur in="BackgroundImage" stdDeviation="2.05102"/>
<feComposite in2="SourceAlpha" operator="in" result="effect1_backgroundBlur_90_2318"/>
<feBlend mode="normal" in="SourceGraphic" in2="effect1_backgroundBlur_90_2318" result="shape"/>
</filter>
<linearGradient id="paint0_linear_90_2318" x1="17.0613" y1="16.875" x2="-7.54196" y2="28.8377" gradientUnits="userSpaceOnUse">
<stop stop-color="#FF8F71"/>
<stop offset="1" stop-color="#EF2D1A"/>
</linearGradient>
<linearGradient id="paint1_linear_90_2318" x1="5.45714" y1="4.26204" x2="23.3182" y2="26.3833" gradientUnits="userSpaceOnUse">
<stop stop-color="white" stop-opacity="0.25"/>
<stop offset="1" stop-color="white" stop-opacity="0"/>
</linearGradient>
<linearGradient id="paint2_linear_90_2318" x1="19.9055" y1="11.4228" x2="8.98649" y2="11.7343" gradientUnits="userSpaceOnUse">
<stop stop-color="white"/>
<stop offset="1" stop-color="white" stop-opacity="0.2"/>
</linearGradient>
<linearGradient id="paint3_linear_90_2318" x1="12.3603" y1="10.7051" x2="19.6452" y2="18.5998" gradientUnits="userSpaceOnUse">
<stop stop-color="white" stop-opacity="0.25"/>
<stop offset="1" stop-color="white" stop-opacity="0"/>
</linearGradient>
</defs>
</svg>
