<svg width="32" height="32" viewBox="0 0 32 32" fill="none" xmlns="http://www.w3.org/2000/svg">
<g filter="url(#filter0_b_90_2305)">
<path d="M31 16C31 24.2845 24.2845 31 16 31C7.7155 31 1 24.2845 1 16C1 7.717 7.7155 1 16 1C24.2845 1 31 7.717 31 16Z" fill="#DADADA" fill-opacity="0.2"/>
<path d="M16 31.1367C24.36 31.1367 31.1367 24.36 31.1367 16C31.1367 7.64149 24.36 0.863265 16 0.863265C7.63998 0.863265 0.863265 7.64149 0.863265 16C0.863265 24.36 7.63998 31.1367 16 31.1367Z" stroke="url(#paint0_linear_90_2305)" stroke-width="0.27347" stroke-linecap="round" stroke-linejoin="round"/>
</g>
<g filter="url(#filter1_b_90_2305)">
<path d="M21.8 15.6068C21.8 15.9606 21.6886 16.3158 21.4659 16.6002C21.4241 16.656 21.2293 16.886 21.0761 17.0357L20.9926 17.1174C19.8233 18.3571 16.9139 20.2215 15.4384 20.819C15.4384 20.8326 14.5614 21.1878 14.1438 21.2H14.0881C13.4477 21.2 12.8491 20.8475 12.5429 20.276C12.3759 19.9616 12.2227 19.0498 12.2088 19.0376C12.0835 18.2197 12 16.9677 12 15.5932C12 14.152 12.0835 12.8442 12.2366 12.0413C12.2366 12.0277 12.3898 11.2928 12.4872 11.0479C12.6403 10.6954 12.9188 10.3947 13.2668 10.2041C13.5452 10.0694 13.8375 10 14.1438 10C14.4639 10.015 15.0625 10.2177 15.2991 10.313C16.8582 10.9118 19.8372 12.8714 20.9787 14.069C21.1736 14.2595 21.3824 14.4922 21.4381 14.5453C21.6747 14.8447 21.8 15.2122 21.8 15.6068Z" fill="#DADADA" fill-opacity="0.4"/>
<path d="M12.5429 20.276L12.5912 20.2503C12.5117 20.1008 12.4331 19.8018 12.3718 19.5314C12.3415 19.3976 12.3159 19.2732 12.297 19.1811L12.297 19.181L12.2969 19.1808C12.2875 19.135 12.2797 19.0968 12.2737 19.0697C12.2708 19.0562 12.2682 19.0448 12.266 19.0363C12.2649 19.0322 12.2637 19.0278 12.2624 19.0239C12.2622 19.0234 12.262 19.0229 12.2618 19.0222C12.1377 18.2079 12.0547 16.9621 12.0547 15.5932C12.0547 14.1531 12.1382 12.8494 12.2904 12.0516L12.2913 12.0517V12.0452L12.2922 12.0406L12.297 12.0155C12.3014 11.9939 12.3077 11.9633 12.3156 11.9262C12.3314 11.8518 12.3535 11.7514 12.3787 11.6438C12.4292 11.4273 12.4908 11.1871 12.5377 11.0689C12.6857 10.7287 12.9549 10.4376 13.2918 10.2528C13.5623 10.1221 13.8457 10.0549 14.1425 10.0547C14.2954 10.0621 14.519 10.1147 14.7373 10.1789C14.955 10.2429 15.1621 10.3168 15.2787 10.3637L15.2787 10.3637L15.2795 10.3641C16.0535 10.6613 17.1842 11.2984 18.2654 12.0121C19.3467 12.7259 20.3727 13.5125 20.9391 14.1068L20.9391 14.1068L20.9405 14.1081C21.0371 14.2026 21.1373 14.3077 21.2208 14.3962C21.2407 14.4173 21.2597 14.4376 21.2776 14.4567C21.3313 14.5139 21.3744 14.5598 21.3974 14.5821C21.6247 14.871 21.7453 15.2253 21.7453 15.6068C21.7453 15.9494 21.6374 16.2925 21.4228 16.5665L21.4221 16.5675C21.3821 16.6209 21.1891 16.8488 21.0379 16.9966L20.9544 17.0783L20.9543 17.0782L20.9528 17.0798C20.3726 17.695 19.3573 18.4682 18.3003 19.1633C17.2435 19.8583 16.1508 20.4715 15.4178 20.7683L15.3837 20.7821V20.7861C15.3818 20.7869 15.3797 20.7878 15.3776 20.7888C15.3537 20.7994 15.3185 20.8142 15.2745 20.8317C15.1866 20.8668 15.0649 20.9125 14.9301 20.9582C14.6584 21.0503 14.3425 21.1392 14.1429 21.1453H14.0881C13.4677 21.1453 12.8877 20.8038 12.5911 20.2501L12.5429 20.276ZM12.5429 20.276C12.8491 20.8475 13.4477 21.2 14.0881 21.2H14.1438L12.2366 12.0413C12.0835 12.8442 12 14.152 12 15.5932C12 16.9677 12.0835 18.2197 12.2088 19.0376C12.2123 19.0406 12.2245 19.1 12.2434 19.1922C12.3002 19.4686 12.4176 20.0402 12.5429 20.276Z" stroke="url(#paint1_linear_90_2305)" stroke-width="0.109388"/>
</g>
<defs>
<filter id="filter0_b_90_2305" x="-0.588826" y="-0.588856" width="33.1777" height="33.1777" filterUnits="userSpaceOnUse" color-interpolation-filters="sRGB">
<feFlood flood-opacity="0" result="BackgroundImageFix"/>
<feGaussianBlur in="BackgroundImage" stdDeviation="0.657694"/>
<feComposite in2="SourceAlpha" operator="in" result="effect1_backgroundBlur_90_2305"/>
<feBlend mode="normal" in="SourceGraphic" in2="effect1_backgroundBlur_90_2305" result="shape"/>
</filter>
<filter id="filter1_b_90_2305" x="7.89796" y="5.89796" width="18.0041" height="19.4041" filterUnits="userSpaceOnUse" color-interpolation-filters="sRGB">
<feFlood flood-opacity="0" result="BackgroundImageFix"/>
<feGaussianBlur in="BackgroundImage" stdDeviation="2.05102"/>
<feComposite in2="SourceAlpha" operator="in" result="effect1_backgroundBlur_90_2305"/>
<feBlend mode="normal" in="SourceGraphic" in2="effect1_backgroundBlur_90_2305" result="shape"/>
</filter>
<linearGradient id="paint0_linear_90_2305" x1="5.77551" y1="4.49504" x2="24.9123" y2="28.1964" gradientUnits="userSpaceOnUse">
<stop stop-color="white" stop-opacity="0.25"/>
<stop offset="1" stop-color="white" stop-opacity="0"/>
</linearGradient>
<linearGradient id="paint1_linear_90_2305" x1="13.56" y1="11.3048" x2="20.845" y2="19.1996" gradientUnits="userSpaceOnUse">
<stop stop-color="white" stop-opacity="0.25"/>
<stop offset="1" stop-color="white" stop-opacity="0"/>
</linearGradient>
</defs>
</svg>
