<svg width="20" height="19" viewBox="0 0 20 19" fill="none" xmlns="http://www.w3.org/2000/svg">
<ellipse cx="9.91964" cy="9.63014" rx="4.60714" ry="4.60274" fill="url(#paint0_linear_90_2392)"/>
<g filter="url(#filter0_b_90_2392)">
<path d="M18.5383 6.62581L13.0137 5.82236L10.5441 0.812237C10.4767 0.675063 10.3657 0.564017 10.2286 0.496519C9.88484 0.326684 9.46707 0.468213 9.29518 0.812237L6.82557 5.82236L1.30104 6.62581C1.14873 6.64758 1.00947 6.71944 0.902857 6.82831C0.773962 6.96088 0.702936 7.13923 0.705384 7.32418C0.707831 7.50913 0.783554 7.68554 0.915912 7.81465L4.91298 11.7143L3.96865 17.2209C3.94651 17.349 3.96067 17.4807 4.00954 17.6012C4.05841 17.7216 4.14003 17.826 4.24514 17.9023C4.35025 17.9787 4.47465 18.0241 4.60422 18.0334C4.7338 18.0426 4.86338 18.0154 4.97826 17.9547L9.91965 15.3549L14.861 17.9547C14.996 18.0265 15.1526 18.0505 15.3027 18.0243C15.6813 17.959 15.9359 17.5997 15.8706 17.2209L14.9263 11.7143L18.9234 7.81465C19.0322 7.70796 19.104 7.56861 19.1257 7.41619C19.1845 7.03516 18.919 6.68242 18.5383 6.62581Z" fill="url(#paint1_linear_90_2392)"/>
<path d="M12.5653 6.04343L12.6815 6.27931L12.9418 6.31716L18.4647 7.12037C18.4649 7.1204 18.4651 7.12043 18.4653 7.12046C18.5771 7.13738 18.6472 7.2386 18.6316 7.34001L18.6316 7.34L18.6308 7.34553C18.6248 7.38704 18.6052 7.42626 18.5735 7.45745C18.5735 7.45752 18.5734 7.45759 18.5733 7.45766L14.5772 11.3564L14.3891 11.5399L14.4335 11.7988L15.3778 17.3054L15.3779 17.3058C15.3961 17.4116 15.3252 17.5131 15.2177 17.5316L15.217 17.5317C15.1742 17.5392 15.1307 17.5318 15.0961 17.5133L15.0939 17.5122L10.1525 14.9124L9.91965 14.7899L9.68685 14.9124L4.74545 17.5122L4.74467 17.5126C4.71245 17.5296 4.67613 17.5372 4.63981 17.5346C4.6035 17.5321 4.56861 17.5193 4.5391 17.4979C4.50958 17.4764 4.48662 17.4471 4.47286 17.4132C4.4591 17.3793 4.45511 17.3422 4.46135 17.3061L4.46146 17.3054L5.40579 11.7988L5.45019 11.5399L5.26215 11.3564L1.26508 7.45677L1.26505 7.45674C1.22755 7.42016 1.20604 7.37011 1.20534 7.31757C1.20465 7.26532 1.2246 7.21499 1.26073 7.17749C1.29182 7.14602 1.33075 7.12665 1.3718 7.12078L1.373 7.1206L6.89753 6.31716L7.15777 6.27931L7.27404 6.04343L9.74245 1.03572C9.7426 1.03543 9.74274 1.03514 9.74289 1.03485C9.79286 0.936011 9.91214 0.897857 10.0072 0.944801L10.0077 0.945088C10.0458 0.963809 10.0767 0.994688 10.0954 1.03287L10.0957 1.0333L12.5653 6.04343Z" stroke="url(#paint2_linear_90_2392)"/>
</g>
<defs>
<filter id="filter0_b_90_2392" x="-4.10468" y="-4.38534" width="28.0486" height="27.2305" filterUnits="userSpaceOnUse" color-interpolation-filters="sRGB">
<feFlood flood-opacity="0" result="BackgroundImageFix"/>
<feGaussianBlur in="BackgroundImage" stdDeviation="2.405"/>
<feComposite in2="SourceAlpha" operator="in" result="effect1_backgroundBlur_90_2392"/>
<feBlend mode="normal" in="SourceGraphic" in2="effect1_backgroundBlur_90_2392" result="shape"/>
</filter>
<linearGradient id="paint0_linear_90_2392" x1="4.94602" y1="14.7908" x2="16.2682" y2="8.52049" gradientUnits="userSpaceOnUse">
<stop stop-color="#F3BE00"/>
<stop offset="1" stop-color="#FBEC65"/>
</linearGradient>
<linearGradient id="paint1_linear_90_2392" x1="-0.0276323" y1="19.1024" x2="22.1331" y2="6.27182" gradientUnits="userSpaceOnUse">
<stop stop-color="#F3BE00"/>
<stop offset="1" stop-color="#FBEC65"/>
</linearGradient>
<linearGradient id="paint2_linear_90_2392" x1="3.63885" y1="2.4763" x2="14.7546" y2="16.883" gradientUnits="userSpaceOnUse">
<stop stop-color="white" stop-opacity="0.25"/>
<stop offset="1" stop-color="white" stop-opacity="0"/>
</linearGradient>
</defs>
</svg>
